<?xml version="1.0" encoding="UTF-8" standalone="no"?>
<!DOCTYPE svg PUBLIC "-//W3C//DTD SVG 1.1//EN" "http://www.w3.org/Graphics/SVG/1.1/DTD/svg11.dtd">
<svg width="100%" height="100%" viewBox="0 0 50 50" version="1.1" xmlns="http://www.w3.org/2000/svg" xmlns:xlink="http://www.w3.org/1999/xlink" xml:space="preserve" xmlns:serif="http://www.serif.com/" style="fill-rule:evenodd;clip-rule:evenodd;stroke-linejoin:round;stroke-miterlimit:2;">
    <path d="M25,5C13.974,5 5,13.974 5,25C5,36.026 13.974,45 25,45C36.026,45 45,36.026 45,25C45,13.974 36.026,5 25,5ZM23.333,8.415L23.333,11.667L20,11.667L20,9.095C21.068,8.761 22.184,8.528 23.333,8.415ZM26.667,8.415C29.549,8.699 32.209,9.721 34.466,11.279L33.333,11.667L33.333,13.333L31.667,13.333L30,15L30,18.333L33.333,16.667L38.333,18.333L36.667,21.667L33.333,20L30,20L26.667,23.333L26.667,26.667L30,30L33.333,30L35,33.333L31.488,40.361C29.495,41.201 27.304,41.667 25,41.667C24.387,41.667 23.785,41.63 23.19,41.566L19.941,38.392L20,31.667L15,26.667L10,26.667L10,23.333L18.333,18.333L18.333,15L21.667,15L23.333,16.667L26.667,15L26.667,8.415Z" style="fill:rgb(153,153,153);fill-rule:nonzero;"/>
</svg>
