<?xml version="1.0" encoding="UTF-8" standalone="no"?>
<!DOCTYPE svg PUBLIC "-//W3C//DTD SVG 1.1//EN" "http://www.w3.org/Graphics/SVG/1.1/DTD/svg11.dtd">
<svg width="100%" height="100%" viewBox="0 0 64 64" version="1.1" xmlns="http://www.w3.org/2000/svg" xmlns:xlink="http://www.w3.org/1999/xlink" xml:space="preserve" xmlns:serif="http://www.serif.com/" style="fill-rule:evenodd;clip-rule:evenodd;stroke-linejoin:round;stroke-miterlimit:2;">
    <path d="M14.5,27C11.757,27 9.5,29.257 9.5,32C9.5,34.743 11.757,37 14.5,37C17.243,37 19.5,34.743 19.5,32C19.5,29.257 17.243,27 14.5,27ZM14.5,44.5C11.757,44.5 9.5,46.757 9.5,49.5C9.5,52.243 11.757,54.5 14.5,54.5C17.243,54.5 19.5,52.243 19.5,49.5C19.5,46.757 17.243,44.5 14.5,44.5ZM14.5,9.5C11.757,9.5 9.5,11.757 9.5,14.5C9.5,17.243 11.757,19.5 14.5,19.5C17.243,19.5 19.5,17.243 19.5,14.5C19.5,11.757 17.243,9.5 14.5,9.5Z" style="fill:white;fill-rule:nonzero;"/>
    <path d="M14.5,38.5C10.9,38.5 8,35.6 8,32C8,28.4 10.9,25.5 14.5,25.5C18.1,25.5 21,28.4 21,32C21,35.6 18.1,38.5 14.5,38.5ZM14.5,28.5C12.55,28.5 11,30.05 11,32C11,33.95 12.55,35.5 14.5,35.5C16.45,35.5 18,33.95 18,32C18,30.05 16.45,28.5 14.5,28.5Z" style="fill:rgb(0,173,239);fill-rule:nonzero;"/>
    <path d="M14.5,56C10.9,56 8,53.1 8,49.5C8,45.9 10.9,43 14.5,43C18.1,43 21,45.9 21,49.5C21,53.1 18.1,56 14.5,56ZM14.5,46C12.55,46 11,47.55 11,49.5C11,51.45 12.55,53 14.5,53C16.45,53 18,51.45 18,49.5C18,47.55 16.45,46 14.5,46Z" style="fill:rgb(0,173,239);fill-rule:nonzero;"/>
    <path d="M14.5,21C10.9,21 8,18.1 8,14.5C8,10.9 10.9,8 14.5,8C18.1,8 21,10.9 21,14.5C21,18.1 18.1,21 14.5,21ZM14.5,11C12.55,11 11,12.55 11,14.5C11,16.45 12.55,18 14.5,18C16.45,18 18,16.45 18,14.5C18,12.55 16.45,11 14.5,11ZM54,16L27,16C26.15,16 25.5,15.35 25.5,14.5C25.5,13.65 26.15,13 27,13L54,13C54.85,13 55.5,13.65 55.5,14.5C55.5,15.35 54.85,16 54,16ZM54,33.5L27,33.5C26.15,33.5 25.5,32.85 25.5,32C25.5,31.15 26.15,30.5 27,30.5L54,30.5C54.85,30.5 55.5,31.15 55.5,32C55.5,32.85 54.85,33.5 54,33.5Z" style="fill:rgb(0,173,239);fill-rule:nonzero;"/>
    <path d="M54,51L27,51C26.15,51 25.5,50.35 25.5,49.5C25.5,48.65 26.15,48 27,48L54,48C54.85,48 55.5,48.65 55.5,49.5C55.5,50.35 54.85,51 54,51Z" style="fill:rgb(0,173,239);fill-rule:nonzero;"/>
</svg>
