<?xml version="1.0" encoding="UTF-8" standalone="no"?>
<!DOCTYPE svg PUBLIC "-//W3C//DTD SVG 1.1//EN" "http://www.w3.org/Graphics/SVG/1.1/DTD/svg11.dtd">
<svg width="100%" height="100%" viewBox="0 0 50 50" version="1.1" xmlns="http://www.w3.org/2000/svg" xmlns:xlink="http://www.w3.org/1999/xlink" xml:space="preserve" xmlns:serif="http://www.serif.com/" style="fill-rule:evenodd;clip-rule:evenodd;stroke-linejoin:round;stroke-miterlimit:2;">
    <g transform="matrix(1,0,0,1,-1.4157,-4.05405)">
        <path d="M6.667,8.333C4.838,8.333 3.333,9.838 3.333,11.667C3.333,13.495 4.838,15 6.667,15C8.495,15 10,13.495 10,11.667C10,9.838 8.495,8.333 6.667,8.333ZM16.667,10C16.659,10 16.651,10 16.643,10C15.729,10 14.976,10.752 14.976,11.667C14.976,12.581 15.729,13.334 16.643,13.334C16.651,13.334 16.659,13.333 16.667,13.333L45,13.333C45.008,13.333 45.016,13.334 45.024,13.334C45.938,13.334 46.69,12.581 46.69,11.667C46.69,10.752 45.938,10 45.024,10C45.016,10 45.008,10 45,10L16.667,10ZM6.667,21.667C4.838,21.667 3.333,23.171 3.333,25C3.333,26.829 4.838,28.333 6.667,28.333C8.495,28.333 10,26.829 10,25C10,23.171 8.495,21.667 6.667,21.667ZM16.667,23.333C15.745,23.333 15,24.078 15,25C15,25.922 15.745,26.667 16.667,26.667L28.916,26.667C31.491,24.585 34.765,23.333 38.333,23.333L16.667,23.333ZM38.333,26.667C31.89,26.667 26.667,31.89 26.667,38.333C26.667,44.777 31.89,50 38.333,50C44.777,50 50,44.777 50,38.333C50,31.89 44.777,26.667 38.333,26.667ZM38.333,31.667C39.253,31.667 40,32.412 40,33.333L40,36.667L43.333,36.667C44.253,36.667 45,37.412 45,38.333C45,39.255 44.253,40 43.333,40L40,40L40,43.333C40,44.255 39.253,45 38.333,45C37.413,45 36.667,44.255 36.667,43.333L36.667,40L33.333,40C32.413,40 31.667,39.255 31.667,38.333C31.667,37.412 32.413,36.667 33.333,36.667L36.667,36.667L36.667,33.333C36.667,32.412 37.413,31.667 38.333,31.667ZM6.667,35C4.838,35 3.333,36.505 3.333,38.333C3.333,40.162 4.838,41.667 6.667,41.667C8.495,41.667 10,40.162 10,38.333C10,36.505 8.495,35 6.667,35ZM16.667,36.667C15.745,36.667 15,37.412 15,38.333C15,39.255 15.745,40 16.667,40L23.431,40C23.369,39.452 23.333,38.897 23.333,38.333C23.333,37.77 23.369,37.215 23.431,36.667L16.667,36.667Z" style="fill:white;fill-rule:nonzero;"/>
    </g>
</svg>
