<?xml version="1.0" encoding="UTF-8" standalone="no"?>
<!DOCTYPE svg PUBLIC "-//W3C//DTD SVG 1.1//EN" "http://www.w3.org/Graphics/SVG/1.1/DTD/svg11.dtd">
<svg width="100%" height="100%" viewBox="0 0 79 31" version="1.1" xmlns="http://www.w3.org/2000/svg" xmlns:xlink="http://www.w3.org/1999/xlink" xml:space="preserve" xmlns:serif="http://www.serif.com/" style="fill-rule:evenodd;clip-rule:evenodd;stroke-linejoin:round;stroke-miterlimit:2;">
    <g id="Artboard1" transform="matrix(1,0,0,1.04992,-1,-18.3965)">
        <rect x="1" y="17.522" width="78.86" height="28.956" style="fill:none;"/>
        <clipPath id="_clip1">
            <rect x="1" y="17.522" width="78.86" height="28.956"/>
        </clipPath>
        <g clip-path="url(#_clip1)">
            <g transform="matrix(-0.616091,0,0,0.5868,79.86,13.3245)">
                <path d="M127.5,42L99.78,42L99.78,40.79L101.79,40.79C102.059,40.79 102.28,40.569 102.28,40.3C102.274,40.045 102.17,39.801 101.99,39.62C100.49,38.08 90.56,38 88.52,38L84,38L84,37L84.5,37C84.774,37 85,36.774 85,36.5C85,33.83 77,31 69.5,31L60.63,31C57.752,29.551 54.686,28.511 51.52,27.91C50.82,27.24 50.08,26.6 49.34,26L51.5,26C51.774,26 52,25.774 52,25.5C52,25.226 51.774,25 51.5,25L48.5,25C48.391,25.003 48.285,25.042 48.2,25.11L47.46,24.56L47.26,21.56L50.504,21.56C50.778,21.56 51.004,21.334 51.004,21.06C51.004,21.04 51.002,21.02 51,21C50.998,20.98 51,21 51,20.94L51.79,20.42C51.925,20.324 52.004,20.166 52,20L52,18.5C52,17.403 51.097,16.5 50,16.5C48.903,16.5 48,17.403 48,18.5L48,20C47.998,20.168 48.081,20.326 48.22,20.42L48.35,20.5L47.2,20.5L47,17.47C46.993,17.348 46.939,17.234 46.85,17.15L45,15.29L45,8.5C45,8.226 44.774,8 44.5,8C44.226,8 44,8.226 44,8.5L44,20L42.65,20L42.78,19.92C42.918,19.825 43,19.668 43,19.5L43,18C43,16.903 42.097,16 41,16C39.903,16 39,16.903 39,18L39,19.5C39,19.668 39.082,19.825 39.22,19.92L39.38,20.02C39.159,20.075 39.002,20.273 39,20.5C39,20.774 39.226,21 39.5,21L44,21L44,22.22L43.76,22.07C43.682,22.022 43.592,21.998 43.5,22L41.5,22C41.32,22.002 41.153,22.096 41.06,22.25C40.975,22.409 40.975,22.601 41.06,22.76L41.82,24L40.5,24C40.226,24 40,24.226 40,24.5C40,24.774 40.226,25 40.5,25L42.42,25L43.63,27L42.5,27C42.367,26.998 42.24,27.053 42.15,27.15L41.29,28L30.5,28C30.367,27.998 30.24,28.053 30.15,28.15L28.15,30.15C28.001,30.287 27.956,30.506 28.04,30.69C28.117,30.876 28.299,30.999 28.5,31C36.28,31 44.94,31.56 46.74,32.48C46,33 44.58,33 39.5,33L23.5,33C23.392,33.003 23.288,33.037 23.2,33.1L19.2,36.1C19.029,36.23 18.96,36.457 19.03,36.66C19.095,36.863 19.286,37.002 19.5,37L24,37L24,39L14.5,39C14.367,38.998 14.24,39.053 14.15,39.15L11.15,42.15C11.001,42.287 10.956,42.506 11.04,42.69C11.117,42.876 11.299,42.999 11.5,43L16,43L16,46L5.5,46C5.325,45.999 5.161,46.09 5.07,46.24L2.22,51L0.5,51C0.226,51 0,51.226 0,51.5L0,53.5C0,53.774 0.226,54 0.5,54C1.55,54 105.58,55 112.5,55C112.658,55.003 112.808,54.928 112.9,54.8C115.81,50.91 127.66,43 127.78,42.92C127.961,42.792 128.042,42.563 127.98,42.35C127.914,42.141 127.719,41.999 127.5,42ZM49,18.54C49,17.991 49.451,17.54 50,17.54C50.549,17.54 51,17.991 51,18.54L51,19.78L50,20.44L49,19.78L49,18.54ZM40,18C40,17.451 40.451,17 41,17C41.549,17 42,17.451 42,18L42,19.23L41,19.9L40,19.23L40,18ZM98.78,42L89.78,42L87.09,41C90.09,40.95 95.09,40.87 98.81,40.84L98.78,42ZM83,38L74,38L74,37L83,37L83,38ZM71,38L71,37L73,37L73,38L71,38ZM68,38L68,37L70,37L70,38L68,38ZM65,38L65,37L67,37L67,38L65,38ZM62,38L62,37L64,37L64,38L62,38ZM55,38L55,37L61,37L61,38L55,38ZM53.5,38C53.447,37.99 53.393,37.99 53.34,38L52,38.47L52,37L54,37L54,38L53.5,38ZM50.42,39L48,39L48,37L51,37L51,38.81L50.42,39ZM44,39L44,37L47,37L47,39L44,39ZM40,39L40,37L43,37L43,39L40,39ZM36,39L36,37L39,37L39,39L36,39ZM32,39L32,37L35,37L35,39L32,39ZM30,39L30,37L31,37L31,39L30,39ZM45,16.71L46,17.71L46.4,23.8C45.87,23.43 45.4,23.11 44.99,22.85L45,16.71ZM42.38,23L43.38,23C45.583,24.368 47.685,25.892 49.67,27.56C48.07,27.311 46.457,27.144 44.84,27.06L42.38,23ZM23.67,34L39.5,34C45.61,34 46.71,34 47.85,32.85C48.004,32.702 48.044,32.471 47.95,32.28C47,30.33 35,30 29.7,30L30.7,29L41.5,29C41.633,29.002 41.76,28.947 41.85,28.85L42.71,28C48.782,27.931 54.788,29.276 60.25,31.93C60.325,31.977 60.412,32.002 60.5,32L69.5,32C76.96,32 82.63,34.5 83.78,36L21,36L23.67,34ZM25,37L29,37L29,39L25,39L25,37ZM14.71,40L50.5,40C50.553,40.01 50.607,40.01 50.66,40L51.66,39.66L53.58,39L88.58,39C92.445,38.939 96.309,39.203 100.13,39.79C94.53,39.79 84.65,40 84.54,40C84.303,40.002 84.099,40.176 84.06,40.41C84.019,40.645 84.149,40.88 84.37,40.97L87,42L12.71,42L14.71,40ZM44,45L44,43L49,43L49,45L44,45ZM41,45L41,43L43,43L43,45L41,45ZM38,45L38,43L40,43L40,45L38,45ZM35,45L35,43L37,43L37,45L35,45ZM32,45L32,43L34,43L34,45L32,45ZM29,45L29,43L31,43L31,45L29,45ZM28,43L28,45.19L26.38,46L22,46L22,43L28,43ZM50,43L56.29,43L54.29,45L50,45L50,43ZM17,43L21,43L21,46L17,46L17,43ZM115,51.28C114.914,51.11 114.74,51.002 114.55,51L67.55,51C67.276,51 67.05,51.226 67.05,51.5C67.05,51.774 67.276,52 67.55,52L114.21,52C113.528,52.622 112.89,53.29 112.3,54C103.76,54 8.76,53.08 1,53L1,52L49.5,52C49.774,52 50,51.774 50,51.5C50,51.226 49.774,51 49.5,51L3.38,51L5.78,47L26.5,47C26.573,47.015 26.647,47.015 26.72,47L28.62,46L54.5,46C54.633,46.002 54.76,45.947 54.85,45.85L57.71,43L125.87,43C122.101,45.563 118.472,48.327 115,51.28Z" style="fill-rule:nonzero;"/>
            </g>
        </g>
    </g>
</svg>
