<?xml version="1.0" encoding="UTF-8" standalone="no"?>
<!DOCTYPE svg PUBLIC "-//W3C//DTD SVG 1.1//EN" "http://www.w3.org/Graphics/SVG/1.1/DTD/svg11.dtd">
<svg width="100%" height="100%" viewBox="0 0 24 24" version="1.1" xmlns="http://www.w3.org/2000/svg" xmlns:xlink="http://www.w3.org/1999/xlink" xml:space="preserve" xmlns:serif="http://www.serif.com/" style="fill-rule:evenodd;clip-rule:evenodd;stroke-linejoin:round;stroke-miterlimit:2;">
    <path d="M6,1L6,3L3,3L3,11L5,11L5,8L19,8L19,19L5,19L5,17L3,17L3,21L21,21L21,3L18,3L18,1L16,1L16,3L8,3L8,1L6,1ZM10,11L10,13L3,13L3,15L10,15L10,17L12,15L13,14L12,13L10,11Z" style="fill:rgb(0,173,239);fill-rule:nonzero;"/>
</svg>
