<?xml version="1.0" encoding="UTF-8" standalone="no"?>
<!DOCTYPE svg PUBLIC "-//W3C//DTD SVG 1.1//EN" "http://www.w3.org/Graphics/SVG/1.1/DTD/svg11.dtd">
<svg width="100%" height="100%" viewBox="0 0 30 29" version="1.1" xmlns="http://www.w3.org/2000/svg" xmlns:xlink="http://www.w3.org/1999/xlink" xml:space="preserve" xmlns:serif="http://www.serif.com/" style="fill-rule:evenodd;clip-rule:evenodd;stroke-linejoin:round;stroke-miterlimit:2;">
    <g id="Artboard1" transform="matrix(1,0,0,1.01884,-2.39021,-0.575256)">
        <rect x="2.39" y="0.565" width="29.624" height="27.967" style="fill:none;"/>
        <g transform="matrix(1,0,0,0.981506,0.390213,1.08185)">
            <path d="M24,0C20.686,0 18,2.686 18,6C18,10.792 23,12 23,14C23,14.549 23.448,15 24,15C24.552,15 25,14.549 25,14C25,12 30,10.792 30,6C30,2.686 27.314,0 24,0ZM15,3C8.383,3 3,8.383 3,15C3,21.617 8.383,27 15,27C21.617,27 27,21.617 27,15C27,14.784 26.98,14.574 26.969,14.361C26.822,15.569 25.959,16.547 24.816,16.873C24.743,17.256 24.654,17.634 24.539,18L20.818,18C20.932,17.045 21,16.046 21,15C21,14.72 20.985,14.452 20.975,14.178C20.778,13.943 20.331,13.557 19.988,13.262C19.628,12.952 19.225,12.599 18.818,12.205C18.931,13.087 19,14.019 19,15C19,16.055 18.928,17.061 18.799,18L11.201,18C11.073,17.061 11,16.055 11,15C11,13.945 11.072,12.939 11.201,12L18.613,12C18.06,11.44 17.521,10.778 17.07,10L11.586,10C12.345,6.961 13.722,5 15,5C15.341,5 15.687,5.148 16.029,5.41C16.088,4.604 16.268,3.833 16.549,3.111C16.041,3.046 15.526,3 15,3ZM24,4C25.105,4 26,4.895 26,6C26,7.105 25.105,8 24,8C22.895,8 22,7.105 22,6C22,4.895 22.895,4 24,4ZM11.063,5.811C10.399,6.939 9.868,8.362 9.512,10L6.354,10C7.431,8.146 9.079,6.665 11.063,5.811ZM5.461,12L9.182,12C9.068,12.955 9,13.954 9,15C9,16.046 9.068,17.045 9.182,18L5.461,18C5.163,17.052 5,16.045 5,15C5,13.955 5.163,12.948 5.461,12ZM6.354,20L9.512,20C9.868,21.638 10.397,23.061 11.061,24.189C9.078,23.335 7.431,21.854 6.354,20ZM11.586,20L18.414,20C17.655,23.039 16.278,25 15,25C13.722,25 12.345,23.039 11.586,20ZM20.486,20L23.646,20C22.57,21.854 20.923,23.335 18.938,24.189C19.602,23.061 20.13,21.638 20.486,20Z" style="fill:rgb(0,173,239);fill-rule:nonzero;"/>
        </g>
    </g>
</svg>
